<svg xmlns="http://www.w3.org/2000/svg" width="1157" height="303" viewBox="0 0 2267.33 593.8" shape-rendering="geometricPrecision" text-rendering="geometricPrecision" image-rendering="optimizeQuality" fill-rule="evenodd" clip-rule="evenodd"><defs><style>.fil3{fill:#569c89;fill-rule:nonzero}</style></defs><g id="Camada_x0020_1"><g id="_2287697333040"><path d="M316.5 0v36.8h-87.56c-23.7 3.21-36.66 22.83-4.31 76.64l79.51 137.94-30.82 18.67c-8.04-13.93-16.8-29.08-25.13-43.51-18.85-32.63-35.12-60.79-36.68-63.53a5.399 5.399 0 00-3.29-2.53 5.405 5.405 0 00-4.12.56h-.01a5.462 5.462 0 00-2.55 3.27c-.38 1.39-.19 2.86.52 4.11 1.58 2.76 17.84 30.9 36.69 63.55 8.13 14.08 16.68 28.87 24.56 42.52.06.11.11.22.18.33.15.26.31.52.47.78 6.61 11.46 12.73 22.05 17.73 30.72l-31.79 18.42-79.66-137.97c-1.5-2.6-4.83-3.5-7.44-2a5.456 5.456 0 00-1.99 7.44l69.37 120.14-30.97 17.87-69.36-120.14a5.442 5.442 0 00-7.43-1.99 5.448 5.448 0 00-2 7.44l40.89 70.81-31.85 18.31c-22.43-38.64-61.77-106.9-96.97-168.01C-32.86 25.14 5.47 0 102 0h214.5z" fill="#5fcaac"/><path d="M525.1 314.37l-31.87-18.4 43.78-75.83c9.07-22.14-1.44-43.17-64.22-42.05l-159.21-.12-.76-36.03c16.08 0 33.59-.01 50.25-.01 37.67 0 70.2-.01 73.35 0 1.44.01 2.82-.56 3.84-1.58a5.477 5.477 0 001.58-3.84v-.02c.01-1.44-.56-2.81-1.56-3.84a5.39 5.39 0 00-3.82-1.6c-3.17-.01-35.68 0-73.38 0-16.26 0-33.33 0-49.1.01-.13-.01-.24-.02-.37-.02-.31.01-.61.01-.92.02h-35.46l-.07-36.75h159.32c3.01 0 5.45-2.44 5.45-5.44-.01-3-2.44-5.44-5.44-5.44H297.76V47.68h138.72c3.01 0 5.45-2.44 5.44-5.44.01-3.01-2.43-5.44-5.44-5.45l-81.77.01.07-36.74c44.68-.11 123.46-.04 193.99.02C678.01-.76 680.61 45 632.35 128.6L525.1 314.37z" fill="#569c89"/><path d="M148.32 338.54l31.87-18.4 43.78 75.83c14.63 18.92 38.11 20.34 68.53-34.59l79.7-137.83 31.58 17.36c-8.04 13.93-16.78 29.09-25.11 43.53-18.84 32.63-35.09 60.8-36.68 63.52a5.44 5.44 0 00-.55 4.12c.38 1.38 1.3 2.57 2.54 3.28l.02.01c1.24.73 2.71.93 4.1.57a5.373 5.373 0 003.3-2.5c1.6-2.75 17.84-30.9 36.69-63.55 8.13-14.09 16.66-28.88 24.54-42.53.07-.1.14-.2.2-.32.15-.26.3-.53.44-.8 6.62-11.46 12.74-22.05 17.74-30.71l31.85 18.32-79.66 137.97c-1.5 2.61-.61 5.94 1.99 7.44a5.44 5.44 0 007.43-1.99l69.37-120.14 30.96 17.88-69.36 120.13c-1.5 2.6-.61 5.94 1.99 7.44s5.93.6 7.43-2l40.89-70.81 31.78 18.43c-22.25 38.74-61.7 106.94-97.02 167.98-63.89 112.35-104.82 91.72-153.08 8.13L148.32 338.54z" fill="#454545"/></g><path class="fil3" d="M749.84 450.39c-2.35 0-4.48-.95-6.39-2.87-1.92-1.91-2.87-4.04-2.87-6.39 0-1.77.15-3.09.44-3.97l102.8-282.81c2.94-8.53 8.82-12.8 17.65-12.8h68.82c8.83 0 14.71 4.27 17.65 12.8l102.8 282.81c.29.88.44 2.2.44 3.97 0 2.35-.95 4.48-2.87 6.39-1.91 1.92-4.04 2.87-6.4 2.87h-57.35c-7.06 0-12.06-3.23-15-9.7l-15.88-42.8h-115.6l-15.88 42.8c-2.94 6.47-7.94 9.7-15 9.7h-57.36zm106.77-118.68h78.54l-39.27-112.5-39.27 112.5z"/><path id="1" class="fil3" d="M1116.61 450.39c-5 0-9.05-1.25-12.13-3.75-3.09-2.5-5.23-5.66-6.4-9.48l-89.12-282.37-.89-3.97c0-2.35.96-4.49 2.87-6.4 1.91-1.91 4.19-2.87 6.84-2.87h57.8c4.41 0 8.01 1.25 10.81 3.75 2.79 2.5 4.63 5.22 5.51 8.17l60 199.42 60.45-199.42c.88-3.24 2.72-6.03 5.51-8.39 2.8-2.35 6.4-3.53 10.81-3.53h57.8c2.65 0 4.85.96 6.62 2.87 1.76 1.91 2.65 4.05 2.65 6.4 0 1.47-.15 2.79-.45 3.97l-89.56 282.37c-.88 3.82-2.87 6.98-5.96 9.48-3.08 2.5-7.13 3.75-12.13 3.75h-71.03z"/><path id="2" class="fil3" d="M1332.92 450.39c-2.94 0-5.51-1.1-7.72-3.31-2.2-2.2-3.31-4.78-3.31-7.72V152.58c0-3.23 1.11-5.88 3.31-7.94 2.21-2.06 4.78-3.09 7.72-3.09h63.1c3.23 0 5.88 1.03 7.94 3.09 2.06 2.06 3.09 4.71 3.09 7.94v286.78c0 2.94-1.03 5.52-3.09 7.72-2.06 2.21-4.71 3.31-7.94 3.31h-63.1z"/><path id="3" class="fil3" d="M1541.3 450.39c-5 0-9.05-1.25-12.13-3.75-3.09-2.5-5.22-5.66-6.4-9.48l-89.12-282.37-.88-3.97c0-2.35.95-4.49 2.86-6.4 1.91-1.91 4.19-2.87 6.84-2.87h57.8c4.41 0 8.01 1.25 10.81 3.75 2.79 2.5 4.63 5.22 5.51 8.17l60 199.42 60.45-199.42c.88-3.24 2.72-6.03 5.51-8.39 2.8-2.35 6.4-3.53 10.81-3.53h57.8c2.65 0 4.85.96 6.62 2.87 1.76 1.91 2.65 4.05 2.65 6.4 0 1.47-.15 2.79-.45 3.97l-89.56 282.37c-.88 3.82-2.87 6.98-5.96 9.48-3.08 2.5-7.13 3.75-12.13 3.75h-71.03z"/><path id="4" class="fil3" d="M1757.62 450.39c-2.95 0-5.52-1.1-7.72-3.31-2.21-2.2-3.31-4.78-3.31-7.72V153.02c0-3.23 1.03-5.95 3.09-8.16 2.05-2.2 4.7-3.31 7.94-3.31h208.24c3.24 0 5.96 1.11 8.16 3.31 2.21 2.21 3.31 4.93 3.31 8.16v43.68c0 3.24-1.1 5.89-3.31 7.95-2.2 2.05-4.92 3.08-8.16 3.08h-139.42v56.04h129.71c3.24 0 5.96 1.1 8.17 3.31 2.2 2.2 3.31 4.92 3.31 8.16v40.14c0 3.24-1.11 5.96-3.31 8.17-2.21 2.2-4.93 3.31-8.17 3.31h-129.71v57.35h142.95c3.24 0 5.96 1.1 8.16 3.31 2.21 2.21 3.31 4.93 3.31 8.16v43.68c0 3.24-1.1 5.88-3.31 7.94-2.2 2.06-4.92 3.09-8.16 3.09h-211.77z"/><path id="5" class="fil3" d="M2132.76 454.8c-28.53 0-52.79-4.11-72.79-12.35-20-8.24-35.15-19.12-45.45-32.65-10.29-13.53-15.73-28.23-16.32-44.12 0-2.65.95-4.85 2.87-6.62 1.91-1.76 4.19-2.64 6.84-2.64h58.67c3.53 0 6.4.59 8.61 1.76 2.2 1.18 4.63 3.24 7.28 6.18 3.82 7.06 9.78 12.87 17.87 17.43 8.08 4.55 18.89 6.83 32.42 6.83 15.89 0 28.09-2.42 36.62-7.28 8.53-4.85 12.8-11.54 12.8-20.07 0-6.18-2.21-11.25-6.62-15.22-4.41-3.97-11.47-7.5-21.18-10.59-9.7-3.09-23.68-6.54-41.91-10.37-35.59-7.06-62.21-17.79-79.86-32.21-17.65-14.41-26.47-35-26.47-61.76 0-18.24 5.07-34.49 15.22-48.75 10.15-14.27 24.56-25.37 43.24-33.31 18.68-7.95 40.37-11.92 65.07-11.92 25.89 0 48.32 4.49 67.29 13.46 18.97 8.97 33.53 20.15 43.68 33.53 10.14 13.38 15.51 26.54 16.1 39.49 0 2.64-.88 4.92-2.65 6.84-1.76 1.91-3.97 2.86-6.62 2.86h-61.76c-6.47 0-11.47-2.64-15-7.94-1.77-6.17-6.33-11.4-13.68-15.66-7.35-4.27-16.47-6.4-27.36-6.4-12.35 0-21.91 2.21-28.67 6.62-6.77 4.41-10.15 10.88-10.15 19.41s4.41 15.22 13.23 20.08c8.83 4.85 25.3 9.78 49.42 14.78 27.65 5 49.63 11.25 65.96 18.75 16.32 7.5 28.38 17.2 36.18 29.12 7.79 11.91 11.69 26.98 11.69 45.22 0 20-5.74 37.35-17.21 52.06s-27.35 25.96-47.65 33.75c-20.29 7.8-43.53 11.69-69.71 11.69z"/></g></svg>