<svg id="line" enable-background="new 0 0 36 36" height="512" viewBox="0 0 36 36" width="512" xmlns="http://www.w3.org/2000/svg"><g><path d="m8.377 31.833c6.917 0 11.667 3.583 15 3.583s10.333-1.916 10.333-17.249-9.417-17.584-13.083-17.584c-17.167 0-24.5 31.25-12.25 31.25z" fill="#efefef"/></g><g><path d="m7.375 4.25h1v2h-1z" fill="#a4afc1"/></g><g><path d="m4.125 7.25h2v1h-2z" fill="#a4afc1"/></g><g><path d="m6.75 17.75v8.5h2.75l2-7.386s-1.458-1.114-4.75-1.114z" fill="#2fdf84"/></g><g><path d="m26.75 23c-1.298 0-2.805.628-4.25 1.071v-.431c0-.95-.67-1.77-1.6-1.96l-9.63-1.97-1.49 5.42c1.91.9 6.83 3.12 9.22 3.12 3 0 10.25-4 10.25-4s-.5-1.25-2.5-1.25z" fill="#2fdf84"/></g><g><path d="m29.25 18.125v-8.5h-2.75l-2 7.386s1.458 1.114 4.75 1.114z" fill="#f3f3f1"/></g><g><path d="m9.25 12.875c1.298 0 2.805-.628 4.25-1.071v.431c0 .95.67 1.77 1.6 1.96l9.63 1.97 1.49-5.42c-1.91-.9-6.83-3.12-9.22-3.12-3 0-10.25 4-10.25 4s.5 1.25 2.5 1.25z" fill="#f3f3f1"/></g><g><path d="m6.75 17.75v8.5h2.25v-8.3c-.626-.117-1.367-.2-2.25-.2z" fill="#00b871"/></g><g><path d="m24.75 23.64v.431c1.018-.312 2.065-.712 3.049-.923-.295-.086-.633-.148-1.049-.148-.635 0-1.321.151-2.025.357.014.093.025.187.025.283z" fill="#00b871"/></g><g><path d="m12.03 25.13 1.37-4.984-2.13-.436-1.49 5.42c1.91.9 6.83 3.12 9.22 3.12.314 0 .683-.052 1.077-.131-2.571-.483-6.411-2.218-8.047-2.989z" fill="#00b871"/></g><g><path d="m26.75 17.011 2-7.386h-2.25l-2 7.386s1.458 1.114 4.75 1.114v-.2c-1.709-.32-2.5-.914-2.5-.914z" fill="#d5dbe1"/></g><g><path d="m9 11.625s5.803-3.198 9.173-3.869c-.431-.081-.83-.131-1.173-.131-3 0-10.25 4-10.25 4s.5 1.25 2.5 1.25c.384 0 .787-.059 1.201-.148-1.124-.326-1.451-1.102-1.451-1.102z" fill="#d5dbe1"/></g><g><path d="m17.35 14.195c-.93-.19-1.6-1.01-1.6-1.96v-.431c-.738.226-1.491.5-2.225.714.118.825.739 1.506 1.575 1.677l9.63 1.97.12-.436z" fill="#d5dbe1"/></g><g><path d="m29.25 19c-3.505 0-5.138-1.217-5.205-1.269-.242-.185-.349-.498-.269-.792l2-7.386c.089-.326.385-.553.724-.553h2.75c.414 0 .75.336.75.75v8.5c0 .414-.336.75-.75.75zm-3.875-2.229c.523.247 1.546.615 3.125.707v-6.978h-1.426z"/></g><g><path d="m9.25 13.75c-2.479 0-3.168-1.651-3.196-1.722-.141-.352.002-.752.334-.935.302-.167 7.455-4.093 10.612-4.093 2.409 0 7.011 2 9.54 3.191l-.64 1.357c-4.109-1.937-7.354-3.048-8.9-3.048-2.028 0-6.632 2.19-9.044 3.454.278.159.692.296 1.294.296.878 0 1.963-.361 3.013-.712 1.163-.388 2.366-.788 3.487-.788 2.108 0 4.889 1.003 5.006 1.045l-.512 1.41c-.026-.01-2.652-.955-4.494-.955-.878 0-1.963.361-3.013.712-1.163.388-2.365.788-3.487.788z"/></g><g><path d="m24.58 17.024-9.63-1.97c-1.274-.261-2.2-1.394-2.2-2.694v-.45h1.5v.45c0 .591.421 1.106 1 1.226l9.63 1.97z"/></g><g><path d="m9.5 27h-2.75c-.414 0-.75-.336-.75-.75v-8.5c0-.414.336-.75.75-.75 3.505 0 5.138 1.217 5.205 1.269.242.185.349.498.269.792l-2 7.386c-.089.326-.385.553-.724.553zm-2-1.5h1.426l1.698-6.271c-.523-.247-1.546-.615-3.125-.707v6.978z"/></g><g><path d="m19 29c-2.409 0-7.011-2-9.54-3.191l.64-1.357c4.11 1.938 7.354 3.049 8.9 3.049 2.028 0 6.632-2.19 9.044-3.454-.278-.159-.692-.296-1.294-.296-.878 0-1.963.361-3.013.712-1.163.388-2.366.788-3.487.788-2.108 0-4.889-1.003-5.006-1.045l.512-1.41c.026.01 2.652.955 4.494.955.878 0 1.963-.361 3.013-.712 1.163-.388 2.366-.788 3.487-.788 2.479 0 3.168 1.651 3.196 1.722.141.352-.002.752-.334.935-.302.166-7.455 4.092-10.612 4.092z"/></g><g><path d="m23.25 24.09h-1.5v-.45c0-.591-.421-1.106-1-1.226l-2.721-.56.303-1.469 2.72.56c1.273.261 2.199 1.394 2.199 2.694v.451z"/></g><g><path d="m13 17.684h1.501v5.062h-1.501z" transform="matrix(.2 -.98 .98 .2 -8.802 29.656)"/></g></svg>