<svg id="line" enable-background="new 0 0 36 36" height="512" viewBox="0 0 36 36" width="512" xmlns="http://www.w3.org/2000/svg"><g><path d="m31.833 8.377c0 6.917 3.583 11.667 3.583 15s-1.916 10.333-17.249 10.333-17.584-9.417-17.584-13.083c0-17.167 31.25-24.5 31.25-12.25z" fill="#efefef"/></g><g><path d="m5 12.5c-.827 0-1.5-.673-1.5-1.5s.673-1.5 1.5-1.5 1.5.673 1.5 1.5-.673 1.5-1.5 1.5zm0-2c-.275 0-.5.225-.5.5s.225.5.5.5.5-.225.5-.5-.225-.5-.5-.5z" fill="#a4afc1"/></g><g><path d="m16.59 17.75c-.81-.54-1.34-1.45-1.34-2.5 0-1.66 1.34-3 3-3s3 1.34 3 3c0 1.05-.53 1.96-1.34 2.5h4.34v3.27c-.675-.611-1.626-.914-2.646-.703-1.159.24-2.092 1.202-2.303 2.366-.347 1.911 1.103 3.566 2.949 3.566.77 0 1.47-.29 2-.77v2.77c0 .552-.448 1-1 1h-10.5c-.552 0-1-.448-1-1v-2.77c-.675.611-1.626.914-2.646.703-1.159-.24-2.092-1.202-2.303-2.366-.346-1.91 1.104-3.566 2.949-3.566.77 0 1.47.29 2 .77v-3.27z" fill="#2fdf84"/></g><g><path d="m29.198 11.184c-.211-1.164-1.144-2.126-2.303-2.366-1.02-.212-1.971.091-2.646.703v-1.771c0-.552-.448-1-1-1h-10.5c-.552 0-1 .448-1 1v10h4.84c-.81-.54-1.34-1.45-1.34-2.5 0-1.66 1.34-3 3-3s3 1.34 3 3c0 1.05-.53 1.96-1.34 2.5h4.34v-3.77c.53.48 1.23.77 2 .77 1.846 0 3.296-1.656 2.949-3.566z" fill="#f3f3f1"/></g><g><path d="m16.59 17.75h2.25c-.81-.54-1.34-1.45-1.34-2.5 0-1.261.775-2.334 1.875-2.778-.348-.141-.726-.222-1.125-.222-1.66 0-3 1.34-3 3 0 1.05.53 1.96 1.34 2.5z" fill="#00b871"/></g><g><path d="m24.25 25.48c-.252.228-.545.41-.864.542.271.109.56.175.864.2z" fill="#00b871"/></g><g><path d="m24.25 20.283c-.132.01-.261.007-.396.035-.176.036-.344.094-.507.162.331.132.642.304.903.541z" fill="#00b871"/></g><g><path d="m12 20.25c.77 0 1.47.29 2 .77v-3.27h-2.25v2.528c.084-.007.164-.028.25-.028z" fill="#00b871"/></g><g><path d="m9.052 23.816c-.272-1.5.57-2.83 1.835-3.338-.351-.145-.733-.228-1.136-.228-1.845 0-3.295 1.656-2.948 3.566.211 1.164 1.144 2.126 2.303 2.367.626.13 1.217.048 1.743-.162-.917-.38-1.618-1.217-1.797-2.205z" fill="#00b871"/></g><g><path d="m14 28.25v-2.77c-.586.531-1.384.806-2.25.737v2.033c0 .552.448 1 1 1h2.25c-.552 0-1-.448-1-1z" fill="#00b871"/></g><g><path d="m15 6.75h-2.25c-.552 0-1 .448-1 1v10h2.25v-10c0-.552.448-1 1-1z" fill="#d5dbe1"/></g><g><path d="m24.25 18.5h-4.34v-1.5h3.59v-3.02c0-.297.175-.565.445-.686.272-.119.588-.069.808.129.907.82 2.443.707 3.226-.231.436-.521.606-1.188.481-1.875-.156-.862-.862-1.589-1.717-1.766-.727-.151-1.454.039-1.989.523-.22.2-.536.249-.808.13-.271-.119-.446-.388-.446-.684v-1.77c0-.138-.112-.25-.25-.25h-5.25v-1.5h5.25c.965 0 1.75.785 1.75 1.75v.463c.642-.228 1.345-.276 2.048-.13 1.461.303 2.622 1.495 2.889 2.967.202 1.116-.092 2.248-.807 3.104-.989 1.186-2.701 1.64-4.13 1.131v2.465c0 .414-.336.75-.75.75z"/></g><g><path d="m16.59 18.5h-4.84c-.414 0-.75-.336-.75-.75v-10c0-.965.785-1.75 1.75-1.75h3.25v1.5h-3.25c-.138 0-.25.112-.25.25v9.25h4.09z"/></g><g><path d="m23.25 30h-10.5c-.965 0-1.75-.785-1.75-1.75v-1.463c-.643.227-1.346.275-2.048.13-1.461-.303-2.622-1.495-2.889-2.967-.202-1.116.092-2.248.807-3.104.989-1.185 2.703-1.639 4.13-1.131v-1.965c0-.414.336-.75.75-.75h3.183c-.28-.531-.433-1.13-.433-1.75 0-2.067 1.683-3.75 3.75-3.75s3.75 1.683 3.75 3.75c0 .62-.152 1.219-.433 1.75h2.683c.414 0 .75.336.75.75v3.27c0 .297-.175.565-.446.686-.271.119-.588.069-.808-.13-.535-.484-1.263-.674-1.989-.523-.854.177-1.561.903-1.717 1.766-.125.688.046 1.354.481 1.875.781.938 2.317 1.052 3.226.231.22-.199.537-.248.808-.129.27.119.445.388.445.684v2.77c0 .965-.785 1.75-1.75 1.75zm-11.5-5.27c.103 0 .206.021.304.064.271.12.446.389.446.686v2.77c0 .138.112.25.25.25h10.5c.138 0 .25-.112.25-.25v-1.465c-1.428.511-3.141.055-4.13-1.131-.715-.856-1.009-1.988-.807-3.104.267-1.472 1.428-2.664 2.889-2.967.701-.146 1.404-.098 2.048.13v-1.213h-3.59c-.33 0-.622-.216-.718-.532s.026-.658.302-.842c.63-.42 1.006-1.121 1.006-1.876 0-1.24-1.01-2.25-2.25-2.25s-2.25 1.01-2.25 2.25c0 .755.376 1.456 1.006 1.876.275.184.397.525.302.842s-.388.532-.718.532h-4.09v2.52c0 .297-.175.565-.445.686-.271.119-.588.069-.808-.129-.908-.822-2.444-.708-3.226.231-.436.521-.606 1.188-.481 1.875.156.862.862 1.589 1.717 1.766.729.152 1.455-.039 1.989-.523.141-.129.321-.196.504-.196z"/></g><g><path d="m2 28.5h32v1.5h-32z"/></g></svg>